{"title":"Dark Skies 2013 WEBRip 720p READNFO x264 AC3-TommieCook","uid":8336314,"size":2064423507,"categoryP":"video","categoryS":"hd___movies","magnet":"?xt=urn:btih:e3f99c5702e82b5c6400f1174f561fad38e67a37&amp;dn=Dark+Skies+2013+WEBRip+720p+READNFO+x264+AC3-TommieCook&amp;tr=udp%3A%2F%2Ftracker.openbittorrent.com%3A80&amp;tr=udp%3A%2F%2Fopen.demonii.com%3A1337&amp;tr=udp%3A%2F%2Ftracker.coppersurfer.tk%3A6969&amp;tr=udp%3A%2F%2Fexodus.desync.com%3A6969","seeders":0,"leechers":1,"uploader":"HeroMaster","files":-1,"time":1364994478,"description":"Dark Skies 2013 WEBRip 720p READNFO x264 AC3-TommieCook\n\nEncoder ..........: Tommie Cook\nVideo Codec.......: AVI.X.264\nVideo Bitrate.....: 2500Kbps\nAudio Codec.......: AC3\nAudio Bitrate.....: 448 Kbps/6 Channels\nResolution........: 720x400\nRuntime...........: 1h 33min\nRelease Date......: N/A\nTheatre Date......: 22 February 2013 (USA)\nLanguage..........: English\nSubtitles.........: n/a\nIMDB Rating.......: 6.3/10\nIMDb URL..........: http://www.imdb.com/title/tt2387433/\n\n=========================================================================\n\nComplete name : Dark.Skies.2013.720p.Read.Info.X264.AC3.TommieCook.avi\nFormat : AVI\nFormat/Info : Audio Video Interleave\nFile size : 1.91 GiB\nDuration : 1h 33mn\nOverall bit rate : 2 936 Kbps\nWriting library : VirtualDub build 32842/release\n\n=========================================================================\n\nVideo\nID : 0\nFormat : AVC\nFormat/Info : Advanced Video Codec\nFormat profile : &lt;a class=&quot;__cf_email__&quot; href=&quot;/cdn-cgi/l/email-protection&quot; data-cfemail=&quot;4e062729260e027a607f&quot;&gt;[email&amp;#160;protected]&lt;/a&gt;&lt;script cf-hash='f9e31' type=&quot;text/javascript&quot;&gt;\n/* &lt;![CDATA[ */!function(){try{var t=&quot;currentScript&quot;in document?document.currentScript:function(){for(var t=document.getElementsByTagName(&quot;script&quot;),e=t.length;e--;)if(t[e].getAttribute(&quot;cf-hash&quot;))return t[e]}();if(t&amp;&amp;t.previousSibling){var e,r,n,i,c=t.previousSibling,a=c.getAttribute(&quot;data-cfemail&quot;);if(a){for(e=&quot;&quot;,r=parseInt(a.substr(0,2),16),n=2;a.length-n;n+=2)i=parseInt(a.substr(n,2),16)^r,e+=String.fromCharCode(i);e=document.createTextNode(e),c.parentNode.replaceChild(e,c)}}}catch(u){}}();/* ]]&gt; */&lt;/script&gt;\nFormat settings, CABAC : Yes\nFormat settings, ReFrames : 4 frames\nCodec ID : X264\nCodec ID/Info : XiWave GNU GPL x264 MPEG-4\nDuration : 1h 33mn\nBit rate : 2 500 Kbps\nWidth : 1 280 pixels\nHeight : 544 pixels\nDisplay aspect ratio : 2.35:1\nFrame rate : 25.000 fps\nColor space : YUV\nChroma subsampling : 4:2:0\nBit depth : 8 bits\nScan type : Progressive\nBits/(Pixel*Frame) : 0.144\nStream size : 1.61 GiB (84%)\n\n=========================================================================\n\nAudio\n\nAudio\nID : 1\nFormat : AC-3\nFormat/Info : Audio Coding 3\nMode extension : CM (complete main)\nFormat settings, Endianness : Big\nCodec ID : 2000\nDuration : 1h 33mn\nBit rate mode : Constant\nBit rate : 448 Kbps\nChannel(s) : 6 channels\nChannel positions : Front: L C R, Side: L R, LFE\nSampling rate : 48.0 KHz\nBit depth : 16 bits\nCompression mode : Lossy\nStream size : 298 MiB (15%)\nAlignment : Aligned on interleaves\nInterleave, duration : 40 ms (1.00 video frame)\nInterleave, preload duration : 512 ms\n\n==========================================================================\n\nPlot:\nAs the Barret familys peaceful suburban life is rocked by an escalating series of\ndisturbing events, they come to learn that a terrifying and deadly force is after them.\n\nNotes:\n\nSource was nice for 1080 webrip.\nClean vid up, an ran some filters.\nNo need to bore u with that stuff.\n\nAudio:\nIs cam, but fix it up a bit to sound nice.\nBeen sitting on audio 4 a minute so glad to release it finally:)\nMOVIE IS VERY WATCHABLE.\n\nOther Notes:\nSo Enjoy another quality release from TommieCook!\n\n\nPoster:\n\n &lt;a href=&quot;\nhttp://i.imgur.com/jAXWNFM.jpg&quot; rel=&quot;nofollow&quot; target=&quot;_NEW&quot;&gt;\nhttp://i.imgur.com/jAXWNFM.jpg&lt;/a&gt;\n\n\nScreenshots:\n\n\n\n &lt;a href=&quot;\nhttp://i.imgur.com/2IVRuQI.png&quot; rel=&quot;nofollow&quot; target=&quot;_NEW&quot;&gt;\nhttp://i.imgur.com/2IVRuQI.png&lt;/a&gt;\n\n &lt;a href=&quot;\nhttp://i.imgur.com/qfelz2x.png&quot; rel=&quot;nofollow&quot; target=&quot;_NEW&quot;&gt;\nhttp://i.imgur.com/qfelz2x.png&lt;/a&gt;\n\n\nSEED AND ENJOY!","torrent":{"xt":"urn:btih:e3f99c5702e82b5c6400f1174f561fad38e67a37","amp;dn":"Dark+Skies+2013+WEBRip+720p+READNFO+x264+AC3-TommieCook","amp;tr":["udp%3A%2F%2Ftracker.openbittorrent.com%3A80","udp%3A%2F%2Fopen.demonii.com%3A1337","udp%3A%2F%2Ftracker.coppersurfer.tk%3A6969","udp%3A%2F%2Fexodus.desync.com%3A6969"],"infoHash":"e3f99c5702e82b5c6400f1174f561fad38e67a37","infoHashBuffer":{"type":"Buffer","data":[227,249,156,87,2,232,43,92,100,0,241,23,79,86,31,173,56,230,122,55]},"announce":[],"urlList":[]}}